<svg width="25" height="25" viewBox="0 0 25 25" fill="none" xmlns="http://www.w3.org/2000/svg">
<path d="M12.5 5C12.5 3.61929 11.3807 2.5 10 2.5C8.61929 2.5 7.5 3.61929 7.5 5C5.84315 5 4.5 6.34315 4.5 8C4.5 8.56866 4.65822 9.10037 4.93304 9.5535C3.54727 9.81855 2.5 11.037 2.5 12.5C2.5 13.963 3.54727 15.1814 4.93304 15.4465C4.65822 15.8996 4.5 16.4313 4.5 17C4.5 18.6569 5.84315 20 7.5 20C7.5 21.3807 8.61929 22.5 10 22.5C11.3807 22.5 12.5 21.3807 12.5 20" stroke="#A0A5AF" stroke-linecap="round" stroke-linejoin="round"/>
<path d="M12.5 20C12.5 21.3807 13.6193 22.5 15 22.5C16.3807 22.5 17.5 21.3807 17.5 20C19.1569 20 20.5 18.6569 20.5 17C20.5 16.4313 20.3418 15.8996 20.067 15.4465C21.4527 15.1814 22.5 13.963 22.5 12.5C22.5 11.037 21.4527 9.81855 20.067 9.5535C20.3418 9.10037 20.5 8.56866 20.5 8C20.5 6.34315 19.1569 5 17.5 5C17.5 3.61929 16.3807 2.5 15 2.5C13.6193 2.5 12.5 3.61929 12.5 5" stroke="#A0A5AF" stroke-linecap="round" stroke-linejoin="round"/>
<path d="M10.987 7.50195V9.48097M7.5 11.0024H9.55198M15.5231 11.0024H17.575M15.5231 13.9756H17.575M7.5 13.9756H9.55198M10.987 15.5212V17.5002M14.0125 15.5212V17.5002M14.0017 7.50195V9.48097M10.552 15.4695H14.5231C15.0753 15.4695 15.5231 15.0218 15.5231 14.4695V10.481C15.5231 9.92868 15.0753 9.48097 14.5231 9.48097H10.552C9.99969 9.48097 9.55198 9.92868 9.55198 10.481V14.4695C9.55198 15.0218 9.99969 15.4695 10.552 15.4695Z" stroke="#A0A5AF" stroke-linecap="round"/>
</svg>
