<svg xmlns="http://www.w3.org/2000/svg" width="18" height="21" viewBox="0 0 18 21" fill="none">
<path d="M1.25 16.4808V8.20753C1.25 4.57416 1.25 2.75748 2.42157 1.62874C3.59315 0.5 5.47876 0.5 9.25 0.5C13.0212 0.5 14.9069 0.5 16.0784 1.62874C17.25 2.75748 17.25 4.57416 17.25 8.20753V16.4808C17.25 18.7867 17.25 19.9396 16.4772 20.3523C14.9805 21.1514 12.1732 18.4852 10.84 17.6824C10.0668 17.2168 9.6802 16.984 9.25 16.984C8.8198 16.984 8.4332 17.2168 7.66 17.6824C6.3268 18.4852 3.51947 21.1514 2.02285 20.3523C1.25 19.9396 1.25 18.7867 1.25 16.4808Z" stroke="#ffbf00" stroke-linecap="round" stroke-linejoin="round" fill="#ffffff"/>
</svg>